<svg xmlns="http://www.w3.org/2000/svg" viewBox="0 0 320 160" role="img" aria-label="仕事や現場の困りごとを相談するイラスト"><circle cx="160" cy="80" r="68" fill="#F1ECFD"/><rect x="36" y="42" width="90" height="82" rx="22" fill="#EAF4FD"/><circle cx="81" cy="66" r="15" fill="#1769AA"/><path d="M55 108c6-22 17-32 26-32s20 10 26 32" fill="#72B7EA"/><rect x="194" y="42" width="90" height="82" rx="22" fill="#FDEEF3"/><circle cx="239" cy="66" r="15" fill="#B43E67"/><path d="M213 108c6-22 17-32 26-32s20 10 26 32" fill="#F39AB9"/><path d="M113 48h72c11 0 20 9 20 20v24c0 11-9 20-20 20h-24l-15 15v-15h-33c-11 0-20-9-20-20V68c0-11 9-20 20-20z" fill="#6B4DB8"/><circle cx="128" cy="80" r="5" fill="#fff"/><circle cx="149" cy="80" r="5" fill="#fff"/><circle cx="170" cy="80" r="5" fill="#fff"/></svg>