<svg xmlns="http://www.w3.org/2000/svg" viewBox="0 0 320 180"><defs><linearGradient id="b" x2="1" y2="1"><stop stop-color="#d9ebff"/><stop offset="1" stop-color="#e9dcff"/></linearGradient><filter id="s"><feDropShadow dy="7" stdDeviation="7" flood-opacity=".18"/></filter></defs><rect width="320" height="180" fill="url(#b)"/><rect x="38" y="42" width="180" height="106" rx="20" fill="#fff" filter="url(#s)"/><rect x="38" y="42" width="180" height="26" rx="20" fill="#3979ad"/><circle cx="78" cy="100" r="22" fill="#b7d5eb"/><path d="M57 132q5-27 21-27t21 27" fill="#76a6c7"/><rect x="116" y="88" width="74" height="10" rx="5" fill="#7190a8"/><rect x="116" y="111" width="52" height="9" rx="5" fill="#bdcbd6"/><path d="M238 73q25-29 50 0" fill="#ffd14a"/><circle cx="263" cy="81" r="23" fill="#dda071"/><path d="M225 155q7-55 38-55t38 55" fill="#ef7c47"/><circle cx="263" cy="126" r="13" fill="#fff"/><path d="m256 126 5 5 10-12" fill="none" stroke="#3b9b6e" stroke-width="5" stroke-linecap="round"/></svg>