<svg xmlns="http://www.w3.org/2000/svg" viewBox="0 0 320 220"><defs><linearGradient id="b" x2="1" y2="1"><stop stop-color="#c8f0df"/><stop offset="1" stop-color="#fff0cb"/></linearGradient><filter id="s"><feDropShadow dx="0" dy="9" stdDeviation="7" flood-color="#365c4b" flood-opacity=".22"/></filter></defs><rect width="320" height="220" fill="url(#b)"/><g filter="url(#s)"><circle cx="95" cy="80" r="28" fill="#ffd0a5"/><path d="M66 76c4-39 57-45 60 1" fill="#f7f8fa"/><path d="M66 76h60" stroke="#4a8bb8" stroke-width="9"/><path d="M54 190c5-64 80-70 87 0" fill="#337da3"/><circle cx="225" cy="80" r="28" fill="#efbd94"/><path d="M196 76c4-39 57-45 60 1" fill="#ffd34a"/><path d="M196 76h60" stroke="#d49a22" stroke-width="9"/><path d="M181 190c5-64 81-70 88 0" fill="#4a916c"/></g><path d="M126 142c18-17 29-17 42 0 13-17 25-17 43 0" fill="none" stroke="#ef9a6a" stroke-width="17" stroke-linecap="round"/><rect x="139" y="40" width="42" height="35" rx="8" fill="#fff" opacity=".9"/><path d="M150 52h20M150 62h14" stroke="#6e8798" stroke-width="5" stroke-linecap="round"/></svg>